<?xml version="1.0" encoding="iso-8859-1"?>
<!-- Uploaded to: SVG Repo, www.svgrepo.com, Generator: SVG Repo Mixer Tools -->
<svg fill="#000000" height="800px" width="800px" version="1.1" id="Layer_1" xmlns="http://www.w3.org/2000/svg" xmlns:xlink="http://www.w3.org/1999/xlink" 
	 viewBox="0 0 512 512" xml:space="preserve">
<g>
	<g>
		<polygon points="383.45,33.034 387.475,0 107.831,0 130.828,188.835 364.473,188.835 379.383,66.425 386.077,66.425 
			386.077,91.793 419.468,91.793 419.468,33.034 		"/>
	</g>
</g>
<g>
	<g>
		<path d="M92.532,222.226v33.391h16.702c6.629,70.54,66.173,125.929,138.418,125.929c72.244,0,131.788-55.388,138.417-125.929
			h16.703v-33.391H92.532z"/>
	</g>
</g>
<g>
	<g>
		<path d="M330.976,393.423c-24.713,13.699-53.121,21.514-83.324,21.514c-27.434,0-53.386-6.451-76.436-17.899L154.065,512h194.601
			L330.976,393.423z"/>
	</g>
</g>
</svg>