<?xml version="1.0" encoding="iso-8859-1"?>
<!-- Uploaded to: SVG Repo, www.svgrepo.com, Generator: SVG Repo Mixer Tools -->
<svg fill="#000000" height="800px" width="800px" version="1.1" id="Layer_1" xmlns="http://www.w3.org/2000/svg" xmlns:xlink="http://www.w3.org/1999/xlink" 
	 viewBox="0 0 512 512" xml:space="preserve">
<g>
	<g>
		<path d="M160.261,176.915v158.233c0,52.79,42.948,95.739,95.739,95.739c52.791,0,95.739-42.948,95.739-95.739V176.915H160.261z
			 M213.902,334.057h33.501v30.417h-33.501V334.057z M272.751,408.072h-33.501v-30.417h33.501V408.072z M298.098,364.474h-33.503
			v-30.417h33.503V364.474z"/>
	</g>
</g>
<g>
	<g>
		<path d="M291.994,95.803V78.319h20.56V47.902h-20.56V35.994C291.994,16.146,275.847,0,256,0
			c-19.847,0-35.994,16.146-35.994,35.994v11.908h-20.561v30.417h20.561v17.484H79.148v239.346C79.148,432.665,158.484,512,256,512
			s176.851-79.335,176.851-176.852V95.803H291.994z M382.156,335.148c0,69.562-56.594,126.156-126.156,126.156
			c-69.563,0-126.156-56.593-126.156-126.156v-188.65h252.312V335.148z"/>
	</g>
</g>
</svg>